<?xml version="1.0" encoding="UTF-8"?>
<svg version="1.1" xmlns="http://www.w3.org/2000/svg" width="176" height="36">
<path d="M0 0 C3.21365891 1.10815825 3.9914224 1.98529554 5.75 5 C7 8 7 8 7 10 C7.99 10.33 8.98 10.66 10 11 C9.26083824 16.02629997 7.63107238 20.36892762 4 24 C4.474375 24.391875 4.94875 24.78375 5.4375 25.1875 C7.35179633 27.40808374 7.61266988 29.13375709 8 32 C5.23735711 32.59732819 2.83967231 33 0 33 C0 33.66 0 34.32 0 35 C-1.485 35.495 -1.485 35.495 -3 36 C-3.66 35.67 -4.32 35.34 -5 35 C-6.485 35.495 -6.485 35.495 -8 36 C-9.68208635 35.02616054 -11.34738161 34.02304948 -13 33 C-15.69254991 32.29329272 -15.69254991 32.29329272 -18 32 C-17.505 30.906875 -17.01 29.81375 -16.5 28.6875 C-14.81160094 25.20033755 -14.81160094 25.20033755 -15 22 C-15.66 21.071875 -16.32 20.14375 -17 19.1875 C-19.18565877 15.70410634 -19.38264379 14.01775978 -19 10 C-18.34 9.67 -17.68 9.34 -17 9 C-16.34227572 5.97065509 -16.34227572 5.97065509 -16 3 C-11.4357264 1.1274775 -7.69955896 0.84072051 -2.85546875 1.02734375 C-0.98301616 1.2152197 -0.98301616 1.2152197 0 0 Z " fill="#3B344F" transform="translate(93,0)"/>
<path d="M0 0 C0.33 0.66 0.66 1.32 1 2 C0.34 2 -0.32 2 -1 2 C0.14730873 6.46175619 2.27462773 8.59048331 6 11.05078125 C9.5665798 12.74351346 12.08328698 12.50538232 16 12 C18.9254644 10.6490712 18.9254644 10.6490712 21 9 C21 10.32 21 11.64 21 13 C21.63040043 14.35085807 22.30251417 15.68252676 23 17 C23.68960962 18.99220557 24.36079057 20.99105606 25 23 C22.23735711 23.59732819 19.83967231 24 17 24 C17 24.66 17 25.32 17 26 C16.01 26.33 15.02 26.66 14 27 C13.34 26.67 12.68 26.34 12 26 C11.01 26.33 10.02 26.66 9 27 C7.31791365 26.02616054 5.65261839 25.02304948 4 24 C1.30745009 23.29329272 1.30745009 23.29329272 -1 23 C-0.505 21.906875 -0.01 20.81375 0.5 19.6875 C2.18839906 16.20033755 2.18839906 16.20033755 2 13 C1.34 12.071875 0.68 11.14375 0 10.1875 C-2.18565877 6.70410634 -2.38264379 5.01775978 -2 1 C-1.34 0.67 -0.68 0.34 0 0 Z " fill="#3D253B" transform="translate(76,9)"/>
<path d="M0 0 C3 2 3 2 4 5.375 C4 9 4 9 2.0625 11.4375 C-2.09905657 13.56074315 -4.34902425 13.51677508 -9 13 C-11.5 11.9375 -11.5 11.9375 -13 10 C-13.52238806 4.04477612 -13.52238806 4.04477612 -12 1 C-10.35 1 -8.7 1 -7 1 C-7 1.66 -7 2.32 -7 3 C-5.906875 2.46375 -4.81375 1.9275 -3.6875 1.375 C-2.470625 0.92125 -1.25375 0.4675 0 0 Z " fill="#B6977F" transform="translate(93,9)"/>
<path d="M0 0 C0.66 0.33 1.32 0.66 2 1 C2 1.66 2 2.32 2 3 C1.01 3 0.02 3 -1 3 C-1 3.99 -1 4.98 -1 6 C0.32 6.33 1.64 6.66 3 7 C3 5.68 3 4.36 3 3 C3.99 2.67 4.98 2.34 6 2 C6.66 2.33 7.32 2.66 8 3 C8.33 2.34 8.66 1.68 9 1 C9.33 1.99 9.66 2.98 10 4 C8.02 4 6.04 4 4 4 C4 4.66 4 5.32 4 6 C6.31 6 8.62 6 11 6 C10.875 7.875 10.875 7.875 10 10 C7.25 11.4375 7.25 11.4375 4 12 C1.4375 10.6875 1.4375 10.6875 -1 9 C-3.69254991 8.29329272 -3.69254991 8.29329272 -6 8 C-4.6875 4.5625 -4.6875 4.5625 -3 1 C-2.01 0.67 -1.02 0.34 0 0 Z " fill="#212036" transform="translate(81,24)"/>
<path d="M0 0 C0.33 0.66 0.66 1.32 1 2 C0.34 2 -0.32 2 -1 2 C0.36974711 7.32679433 3.60396094 9.20964113 8 12 C8.99 12.66 9.98 13.32 11 14 C10.67 15.32 10.34 16.64 10 18 C9.34 18 8.68 18 8 18 C8 19.32 8 20.64 8 22 C6.35 21.67 4.7 21.34 3 21 C3.33 19.68 3.66 18.36 4 17 C4.99 17.33 5.98 17.66 7 18 C5.15811388 15.94729537 5.15811388 15.94729537 3 15 C1.96210419 13.35666496 0.96432076 11.68756133 0 10 C-0.66 9.01 -1.32 8.02 -2 7 C-2.125 3.8125 -2.125 3.8125 -2 1 C-1.34 0.67 -0.68 0.34 0 0 Z " fill="#461227" transform="translate(76,9)"/>
<path d="M0 0 C1.9375 0.5625 1.9375 0.5625 4 2 C4.75 5.625 4.75 5.625 5 9 C4.34 8.360625 3.68 7.72125 3 7.0625 C-0.85690912 4.41087498 -3.37840033 4.31332879 -8 4 C-8 4.66 -8 5.32 -8 6 C-10.31 5.67 -12.62 5.34 -15 5 C-14.01 4.67 -13.02 4.34 -12 4 C-12 3.34 -12 2.68 -12 2 C-9.59511789 0.79755894 -8.10949969 0.93137721 -5.4375 1 C-3.95881779 1.03785426 -2.47844212 1.04629173 -1 1 C-0.67 0.67 -0.34 0.34 0 0 Z " fill="#454D63" transform="translate(93,0)"/>
<path d="M0 0 C0.33 0.66 0.66 1.32 1 2 C1.99 2.33 2.98 2.66 4 3 C3.39301257 7.12751449 1.96189209 10.3321148 0 14 C-0.99 14 -1.98 14 -3 14 C-2.67 13.01 -2.34 12.02 -2 11 C-2.09406754 8.70546505 -2.09406754 8.70546505 -2.4375 6.3125 C-2.53933594 5.50425781 -2.64117187 4.69601563 -2.74609375 3.86328125 C-2.82988281 3.24839844 -2.91367188 2.63351563 -3 2 C-2.01 2 -1.02 2 0 2 C0 1.34 0 0.68 0 0 Z " fill="#15182B" transform="translate(99,8)"/>
<path d="M0 0 C1.32 0.33 2.64 0.66 4 1 C3.01 1 2.02 1 1 1 C1.515625 1.825 2.03125 2.65 2.5625 3.5 C4.40629292 7.98923493 3.89204658 10.29648165 3 15 C0.5 13.75 0.5 13.75 -2 12 C-2 10.68 -2 9.36 -2 8 C-1.34 8 -0.68 8 0 8 C-0.185625 7.05125 -0.37125 6.1025 -0.5625 5.125 C-1 2 -1 2 0 0 Z " fill="#54404B" transform="translate(77,3)"/>
<path d="M0 0 C0.66 0 1.32 0 2 0 C2.33 0.66 2.66 1.32 3 2 C5.31 1.34 7.62 0.68 10 0 C10 0.66 10 1.32 10 2 C10.66 2.33 11.32 2.66 12 3 C8.22364747 5.51756835 5.43634442 5.63772451 1 5 C-1 3.5 -1 3.5 -2 2 C-1.34 2 -0.68 2 0 2 C0 1.34 0 0.68 0 0 Z " fill="#F0C89C" transform="translate(83,17)"/>
<path d="M0 0 C0.33 0.66 0.66 1.32 1 2 C2.98 2 4.96 2 7 2 C7.33 1.34 7.66 0.68 8 0 C8.99 0 9.98 0 11 0 C11 1.65 11 3.3 11 5 C7.88742431 5 5.89234315 4.82638376 3 4 C2.67 4.66 2.34 5.32 2 6 C1.67 5.01 1.34 4.02 1 3 C0.01 3 -0.98 3 -2 3 C-2 2.34 -2 1.68 -2 1 C-1.34 0.67 -0.68 0.34 0 0 Z " fill="#6C5859" transform="translate(84,14)"/>
<path d="M0 0 C3.3 0 6.6 0 10 0 C10 0.99 10 1.98 10 3 C10.66 3.33 11.32 3.66 12 4 C10.35 4.33 8.7 4.66 7 5 C7 4.34 7 3.68 7 3 C5.02 3 3.04 3 1 3 C0.67 2.01 0.34 1.02 0 0 Z " fill="#2C233A" transform="translate(79,7)"/>
<path d="M0 0 C1.65 0 3.3 0 5 0 C4.34 1.65 3.68 3.3 3 5 C2.34 5 1.68 5 1 5 C1.33 6.32 1.66 7.64 2 9 C1.01 9 0.02 9 -1 9 C-1.125 2.25 -1.125 2.25 0 0 Z " fill="#B68473" transform="translate(81,10)"/>
<path d="M0 0 C1.65 0 3.3 0 5 0 C4.67 1.65 4.34 3.3 4 5 C3.01 5 2.02 5 1 5 C1 5.66 1 6.32 1 7 C0.01 7.33 -0.98 7.66 -2 8 C-2.33 7.34 -2.66 6.68 -3 6 C-2.34 5.67 -1.68 5.34 -1 5 C-0.34444881 2.47266765 -0.34444881 2.47266765 0 0 Z " fill="#680A1F" transform="translate(92,28)"/>
<path d="M0 0 C2.33944736 0.28730055 4.6739143 0.61936779 7 1 C6.67 2.32 6.34 3.64 6 5 C4.02 5 2.04 5 0 5 C-0.5625 3.0625 -0.5625 3.0625 -1 1 C-0.67 0.67 -0.34 0.34 0 0 Z " fill="#EFC89B" transform="translate(85,11)"/>
<path d="M0 0 C0.66 0.33 1.32 0.66 2 1 C2.625 3.5625 2.625 3.5625 3 6 C2.01 6.33 1.02 6.66 0 7 C-0.66 6.67 -1.32 6.34 -2 6 C-1.34 4.02 -0.68 2.04 0 0 Z " fill="#161429" transform="translate(98,26)"/>
<path d="M0 0 C1.2065625 0.0309375 1.2065625 0.0309375 2.4375 0.0625 C2.1075 1.0525 1.7775 2.0425 1.4375 3.0625 C0.7775 3.0625 0.1175 3.0625 -0.5625 3.0625 C-0.5625 3.7225 -0.5625 4.3825 -0.5625 5.0625 C-1.2225 5.0625 -1.8825 5.0625 -2.5625 5.0625 C-3.125 3.125 -3.125 3.125 -3.5625 1.0625 C-2.5625 0.0625 -2.5625 0.0625 0 0 Z " fill="#632F3E" transform="translate(89.5625,21.9375)"/>
<path d="M0 0 C0.66 0 1.32 0 2 0 C2 1.98 2 3.96 2 6 C1.01 6 0.02 6 -1 6 C-1.042721 4.33388095 -1.04063832 2.66617115 -1 1 C-0.67 0.67 -0.34 0.34 0 0 Z " fill="#9A665E" transform="translate(99,11)"/>
</svg>
